<?xml version="1.0" encoding="UTF-8"?>
<svg xmlns="http://www.w3.org/2000/svg" viewBox="0 0 64 64" width="64" height="64">
  <defs>
    <linearGradient id="shieldGrad64" x1="0%" y1="0%" x2="0%" y2="100%">
      <stop offset="0%" style="stop-color:#7c3aed"/>
      <stop offset="100%" style="stop-color:#4c1d95"/>
    </linearGradient>
  </defs>

  <!-- Ring -->
  <circle cx="32" cy="32" r="28" fill="none" stroke="#00d4ff" stroke-width="1" opacity="0.3"/>

  <!-- Particles -->
  <circle cx="60" cy="32" r="1.5" fill="#00d4ff" opacity="0.8"/>
  <circle cx="4" cy="32" r="1.5" fill="#6b4ce6" opacity="0.8"/>

  <!-- Shield -->
  <path d="M 32 10 L 46 14 L 46 32 Q 46 46 32 54 Q 18 46 18 32 L 18 14 Z"
        fill="url(#shieldGrad64)"
        stroke="#00d4ff"
        stroke-width="1.5"/>

  <!-- INT monogram -->
  <g transform="translate(32, 32)">
    <rect x="-12" y="-10" width="2.5" height="20" fill="#00d4ff" rx="1"/>
    <path d="M -6 -10 L -6 10 M -6 -10 L 0 10 M 0 -10 L 0 10"
          stroke="#00d4ff" stroke-width="2.5" fill="none" stroke-linecap="round"/>
    <path d="M 4 -10 L 12 -10 M 8 -10 L 8 10"
          stroke="#00d4ff" stroke-width="2.5" fill="none" stroke-linecap="round"/>
  </g>

  <!-- Lattice -->
  <g opacity="0.2" stroke="#00d4ff" stroke-width="0.5" fill="none">
    <line x1="20" y1="16" x2="26" y2="19"/>
    <line x1="26" y1="19" x2="32" y2="16"/>
    <line x1="32" y1="16" x2="38" y2="19"/>
    <line x1="38" y1="19" x2="44" y2="16"/>
  </g>
</svg>
