<?xml version="1.0" encoding="UTF-8"?>
<!-- INTcoin Horizontal Logo -->
<svg xmlns="http://www.w3.org/2000/svg" viewBox="0 0 400 120" width="400" height="120">
  <defs>
    <linearGradient id="textGradient" x1="0%" y1="0%" x2="100%" y2="0%">
      <stop offset="0%" style="stop-color:#00d4ff;stop-opacity:1" />
      <stop offset="100%" style="stop-color:#6b4ce6;stop-opacity:1" />
    </linearGradient>

    <linearGradient id="shieldGrad" x1="0%" y1="0%" x2="0%" y2="100%">
      <stop offset="0%" style="stop-color:#7c3aed;stop-opacity:1" />
      <stop offset="100%" style="stop-color:#4c1d95;stop-opacity:1" />
    </linearGradient>
  </defs>

  <!-- Shield Icon -->
  <g transform="translate(10, 10)">
    <circle cx="50" cy="50" r="48" fill="none" stroke="#00d4ff" stroke-width="1" opacity="0.3"/>

    <path d="M 50 15 L 75 25 L 75 55 Q 75 75 50 85 Q 25 75 25 55 L 25 25 Z"
          fill="url(#shieldGrad)"
          stroke="#00d4ff"
          stroke-width="1.5"/>

    <g transform="translate(50, 50)">
      <rect x="-15" y="-12" width="3" height="25" fill="#00d4ff" rx="1"/>
      <path d="M -7 -12 L -7 13 M -7 -12 L 0 13 M 0 -12 L 0 13"
            stroke="#00d4ff"
            stroke-width="3"
            fill="none"
            stroke-linecap="round"/>
      <path d="M 5 -12 L 15 -12 M 10 -12 L 10 13"
            stroke="#00d4ff"
            stroke-width="3"
            fill="none"
            stroke-linecap="round"/>
    </g>
  </g>

  <!-- Text: INTcoin -->
  <text x="120" y="70" font-family="'Arial Black', sans-serif" font-size="48" font-weight="900" fill="url(#textGradient)">
    INTcoin
  </text>

  <!-- Tagline -->
  <text x="120" y="95" font-family="Arial, sans-serif" font-size="14" fill="#64748b" letter-spacing="2">
    QUANTUM-RESISTANT • DECENTRALIZED
  </text>
</svg>
